<svg xmlns="http://www.w3.org/2000/svg" fill="none" viewBox="0 0 24 24" id="Medium--Streamline-Svg-Logos" height="24" width="24">
  <desc>
    Medium Streamline Icon: https://streamlinehq.com
  </desc>
  <path fill="#000000" d="M2.0125 10.24925c0.971325 0 1.7625 0.791175 1.7625 1.770325 0 0.979175 -0.791175 1.77035 -1.7625 1.77035 -0.9713325 0 -1.7625 -0.78335 -1.7625 -1.77035 0 -0.987 0.7911675 -1.770325 1.7625 -1.770325Zm13.818 -0.039175v3.102c0 0.235 0.094 0.297675 0.274175 0.344675l0.007825 0.039175h-0.994825v-0.38385c-0.1175 0.282 -0.36035 0.45435 -0.673675 0.45435 -0.532675 0 -0.885175 -0.485675 -0.885175 -1.20635 0 -0.407325 0.1175 -0.752 0.33685 -1.0105 0.2115 -0.25065 0.501325 -0.383825 0.8225 -0.383825 0.15665 0 0.289825 0.031325 0.3995 0.101825v-0.423c0 -0.094 -0.0235 -0.15665 -0.0705 -0.20365 -0.062675 -0.05485 -0.1645 -0.07835 -0.321175 -0.062675h-0.007825v-0.039175l1.112325 -0.329Zm3.775675 0.9635v2.1385c0 0.235 0.094 0.297675 0.27415 0.344675v0.039175H18.8855V13.30425c-0.1175 0.282 -0.376 0.462175 -0.665825 0.462175 -0.344675 0 -0.564 -0.156675 -0.650175 -0.462175l-0.015675 -0.078325c-0.01565 -0.07835 -0.0235 -0.156675 -0.0235 -0.235V11.84725c0 -0.250675 -0.054825 -0.329 -0.27415 -0.344675h-0.00785v-0.03915l0.99485 -0.28985v1.801675c0 0.266325 0.1175 0.415175 0.336825 0.415175 0.133175 0 0.242825 -0.0705 0.3055 -0.188V11.84725c0 -0.2585 -0.047 -0.336825 -0.227175 -0.3525h-0.007825v-0.039175l0.955675 -0.282ZM12.423 11.16575c0.266325 0 0.524825 0.094 0.697175 0.2585 0.195825 0.188 0.29765 0.462175 0.3055 0.8225v0.007825H11.9295c-0.031325 0.517 0.289825 0.94 0.712825 0.955675 0.3055 0.0235 0.57185 -0.1645 0.720675 -0.47l0.039175 0.015675c-0.086175 0.571825 -0.423 1.00265 -1.0105 1.00265 -0.66585 0 -1.04185 -0.55615 -1.0575 -1.253325v-0.180175c0.031325 -0.3055 0.125325 -0.57965 0.289825 -0.783325 0.101825 -0.125325 0.219325 -0.219325 0.360325 -0.282 0.1175 -0.062675 0.28985 -0.094 0.43085 -0.094h0.007825Zm10.3635 0.007825c0.423 0 0.6815 0.26635 0.6815 0.720675v1.457c0 0.172325 0.078325 0.2585 0.274175 0.3055H23.75v0.039175h-1.002675V11.91775c0 -0.282 -0.101825 -0.423 -0.313325 -0.423 -0.172325 0 -0.2585 0.125325 -0.3055 0.235 0.007825 0.054825 0.015675 0.109675 0.015675 0.1645v1.4805c0 0.180175 0.054825 0.242825 0.2115 0.282h0.007825v0.039175h-0.932175V11.91775c0 -0.282 -0.10965 -0.423 -0.313325 -0.423 -0.1645 0 -0.250675 0.1175 -0.289825 0.2115v1.676325c0 0.180175 0.054825 0.24285 0.2115 0.282h0.007825v0.039175h-0.932175v-1.864325c0 -0.250675 -0.06265 -0.329 -0.27415 -0.344675h-0.00785v-0.039175l0.99485 -0.27415v0.41515c0.101825 -0.266325 0.336825 -0.423 0.6345 -0.423 0.336825 0 0.571825 0.1645 0.65015 0.462175 0.10185 -0.282 0.36035 -0.462175 0.673675 -0.462175ZM8.4985 10.36675l0.932175 2.1855 0.93215 -2.1855h1.002675l-0.007825 0.039175 -0.0114 0.002525c-0.172725 0.039375 -0.262775 0.103975 -0.262775 0.318625v2.66335c0.015675 0.172325 0.109675 0.22715 0.274175 0.266325h0.007825v0.039175h-1.276825v-0.039175h0.007825c0.1645 -0.039175 0.2585 -0.094 0.274175 -0.266325V10.797575l-1.22985 2.8905h-0.0705l-1.1985 -2.81215v2.451825c0 0.219325 0.094 0.282 0.274175 0.321175h0.007825v0.03915H7.4175v-0.03915h0.007825c0.180175 -0.039175 0.274175 -0.10185 0.274175 -0.321175V10.727075c0 -0.219325 -0.094 -0.282 -0.274175 -0.32115H7.4175v-0.039175h1.081Zm8.546175 0.806825v2.1385l0.000125 0.014475c0.003825 0.223125 0.097625 0.284175 0.274025 0.3302l0.00785 0.039175h-0.99485V11.84725c0 -0.250675 -0.054825 -0.329 -0.27415 -0.344675h-0.00785v-0.03915l0.99485 -0.28985Zm-12.212175 -0.8225c0.477825 0 0.877325 0.752 0.877325 1.6685 0 0.92435 -0.39165 1.6685 -0.877325 1.6685s-0.877325 -0.74415 -0.877325 -1.6685c0 -0.924325 0.39165 -1.6685 0.877325 -1.6685Zm1.347325 0.17235c0.180175 0 0.31335 0.67365 0.31335 1.49615 0 0.8225 -0.141 1.496175 -0.31335 1.496175 -0.1706 0 -0.3105 -0.66025 -0.313275 -1.471525l-0.00005 -0.02465c0 -0.8225 0.141 -1.49615 0.313325 -1.49615Zm8.65585 0.783325c-0.31335 0 -0.509175 0.415175 -0.509175 1.0575 0 0.3055 0.054825 0.571825 0.148825 0.752 0.086175 0.172325 0.2115 0.266325 0.3525 0.266325s0.24285 -0.06265 0.28985 -0.18015v-1.72335c-0.05485 -0.10965 -0.156675 -0.172325 -0.282 -0.172325Zm-2.4205 0.007825c-0.282 0 -0.4465 0.33685 -0.47 0.80685v0.007825h0.853825c0.015675 -0.368175 -0.047 -0.611 -0.1645 -0.7285 -0.062675 -0.054825 -0.133175 -0.086175 -0.219325 -0.086175Zm4.24565 -1.081c0.227175 0 0.3995 0.17235 0.3995 0.3995 0 0.227175 -0.172325 0.3995 -0.3995 0.3995 -0.22715 0 -0.3995 -0.172325 -0.3995 -0.3995 0 -0.22715 0.17235 -0.3995 0.3995 -0.3995Z" stroke-width="0.25"></path>
</svg>
